<svg width="89" height="89" viewBox="0 0 89 89" fill="none" xmlns="http://www.w3.org/2000/svg">
<path d="M88.4749 38.5156C88.3337 38.2332 87.91 37.9507 87.6275 37.9507L72.3744 35.2673L74.7754 14.9299C74.7754 14.7886 74.7754 14.6474 74.7754 14.5062V14.3649C74.7754 14.2237 74.6341 14.0825 74.4929 13.9412C74.4929 13.9412 74.4929 13.9412 74.3517 13.9412C74.2104 13.8 74.0692 13.8 73.928 13.6588H73.7867C73.6455 13.6588 73.5043 13.6588 73.363 13.6588C73.363 13.6588 73.3631 13.6588 73.2218 13.6588L53.4493 16.4834L50.7659 1.23033C50.7659 0.806638 50.4834 0.524175 50.201 0.382943C49.9185 0.241711 49.4948 0.100481 49.0711 0.241713L40.0322 2.7839C39.6086 2.92513 39.3261 3.20759 39.1848 3.49006L13.9043 57.7232L11.2209 60.4066L3.87679 67.7507C-0.50141 72.1289 -0.50141 79.1905 3.87679 83.4275L5.57157 85.1223C7.69005 87.2408 10.5147 88.3706 13.4806 88.3706C16.3052 88.3706 19.1299 87.2408 21.3896 85.1223L28.7337 77.7782C28.7337 77.7782 28.7337 77.637 28.8749 77.637L31.5583 74.9536C31.6995 74.8123 31.6995 74.8123 31.6995 74.6711L85.509 49.673C85.9327 49.5318 86.074 49.2493 86.2152 48.8256L88.7574 39.7867C88.6161 39.2218 88.6161 38.9393 88.4749 38.5156ZM51.6133 56.3109C51.4721 56.7346 51.6133 57.0171 51.8957 57.2995C52.1782 57.582 52.4607 57.8645 52.7431 57.8645L58.9574 58.7119L43.7043 65.7735L38.1962 60.2654L52.7431 50.2379L51.6133 56.3109ZM30.5697 71.9877L26.7564 68.1744L36.0777 61.819L41.3033 67.0446L30.5697 71.9877ZM21.5308 47.4133L26.6152 52.4976L20.2597 61.819L16.4464 58.0057L21.5308 47.4133ZM28.8749 31.454L29.7223 34.8436C29.8635 35.4085 30.4284 35.8322 30.9934 35.8322H38.055L28.1687 50.2379L22.6607 44.7299L28.8749 31.454ZM39.891 46.4246C39.891 47.1308 40.4559 47.6957 41.1621 47.6957L50.9071 48.2607L36.3602 58.2882L30.2872 52.2152L39.6085 38.6569L39.891 46.4246ZM22.237 63.7962L28.5924 54.4749L33.9593 59.8417L24.6379 66.1972L22.237 63.7962ZM14.0455 61.1128L14.8929 60.2654L28.4512 73.8237L27.6038 74.6711L14.0455 61.1128ZM54.4379 45.8597L42.5744 45.1536L42.0095 35.1261L53.0256 19.1668L69.4085 16.7659L54.8616 31.3128C54.2967 31.8777 54.2967 32.7251 54.8616 33.1488C55.1441 33.4313 55.4266 33.5725 55.8503 33.5725C56.1327 33.5725 56.5564 33.4313 56.8389 33.1488L71.527 18.4607L69.5498 35.5498L54.4379 45.8597ZM41.3033 4.90238L46.6702 3.34882L39.0436 17.3308C38.6199 18.037 38.9024 18.7431 39.6085 19.1668C39.7498 19.3081 40.0322 19.3081 40.3147 19.3081C40.7384 19.3081 41.3033 19.0256 41.4446 18.6019L48.6474 5.32607L50.7659 17.472L40.0322 33.1488H33.5356L37.2076 27.0758C37.6313 26.3697 37.3488 25.6635 36.7839 25.2398C36.0777 24.8161 35.3716 25.0986 34.9479 25.6635L31.6995 31.1716L30.8522 27.4995L41.3033 4.90238ZM19.4123 83.0038C16.164 86.2521 10.7972 86.2521 7.54884 83.0038L5.85403 81.309C2.60569 78.0607 2.60569 72.6938 5.85403 69.4455L12.2095 63.0901L25.7678 76.6484L19.4123 83.0038ZM63.618 56.5934C63.4768 56.5934 63.4768 56.5934 63.618 56.5934L57.6863 55.746L64.0417 52.6389C64.7479 52.3564 65.0303 51.509 64.6067 50.8029C64.3242 50.0967 63.4768 49.8142 62.7706 50.2379L54.8616 54.1924L56.1327 48.1194L71.1033 37.8095L83.1081 39.928L67.855 47.6957C67.1488 47.9782 66.8664 48.8256 67.2901 49.5318C67.5725 49.9555 67.9962 50.2379 68.5612 50.2379C68.7024 50.2379 68.9848 50.2379 69.1261 50.0967L85.2266 41.9052L83.673 47.4133L63.618 56.5934Z" fill="#231F20"/>
<path d="M51.472 34.7024L49.3535 36.8209C48.7886 37.3858 48.7886 38.2332 49.3535 38.6569C49.636 38.9393 49.9185 39.0806 50.3422 39.0806C50.6246 39.0806 51.0483 38.9393 51.3308 38.6569L53.4493 36.5384C54.0142 35.9735 54.0142 35.1261 53.4493 34.7024C52.7431 34.2787 51.8957 34.2787 51.472 34.7024Z" fill="#231F20"/>
</svg>
